<svg xmlns="http://www.w3.org/2000/svg" viewBox="0 0 1600 900" width="1600" height="900">
  <defs>
    <radialGradient id="vign" cx="60%" cy="15%" r="85%">
      <stop offset="0%" stop-color="#20211f"/>
      <stop offset="60%" stop-color="#181717"/>
      <stop offset="100%" stop-color="#050505"/>
    </radialGradient>
    <radialGradient id="lensGlow" cx="50%" cy="50%" r="50%">
      <stop offset="0%" stop-color="#d0e4e8" stop-opacity="0.9"/>
      <stop offset="100%" stop-color="#d0e4e8" stop-opacity="0"/>
    </radialGradient>
    <filter id="soft" x="-50%" y="-50%" width="200%" height="200%">
      <feGaussianBlur stdDeviation="3"/>
    </filter>
  </defs>
  <rect width="1600" height="900" fill="url(#vign)"/>
  <line x1="-200" y1="18" x2="992" y2="90" stroke="#d0e4e8" stroke-width="2" opacity="0.16"/><line x1="-50" y1="18" x2="992" y2="90" stroke="#d0e4e8" stroke-width="2" opacity="0.16"/><line x1="120" y1="18" x2="992" y2="90" stroke="#d0e4e8" stroke-width="2" opacity="0.16"/><line x1="280" y1="18" x2="992" y2="90" stroke="#d0e4e8" stroke-width="2" opacity="0.16"/><line x1="460" y1="18" x2="992" y2="90" stroke="#d0e4e8" stroke-width="2" opacity="0.16"/><line x1="640" y1="18" x2="992" y2="90" stroke="#d0e4e8" stroke-width="2" opacity="0.16"/><line x1="820" y1="18" x2="992" y2="90" stroke="#d0e4e8" stroke-width="2" opacity="0.16"/><line x1="1000" y1="18" x2="992" y2="90" stroke="#d0e4e8" stroke-width="2" opacity="0.16"/><line x1="1180" y1="18" x2="992" y2="90" stroke="#d0e4e8" stroke-width="2" opacity="0.16"/><line x1="1360" y1="18" x2="992" y2="90" stroke="#d0e4e8" stroke-width="2" opacity="0.16"/><line x1="1560" y1="18" x2="992" y2="90" stroke="#d0e4e8" stroke-width="2" opacity="0.16"/><line x1="1750" y1="18" x2="992" y2="90" stroke="#d0e4e8" stroke-width="2" opacity="0.16"/><line x1="1900" y1="18" x2="992" y2="90" stroke="#d0e4e8" stroke-width="2" opacity="0.16"/><line x1="-50" y1="20" x2="1650" y2="4" stroke="#fafafa" stroke-width="1.5" opacity="0.09"/><line x1="-50" y1="62" x2="1650" y2="46" stroke="#fafafa" stroke-width="1.5" opacity="0.09"/><line x1="-50" y1="104" x2="1650" y2="88" stroke="#fafafa" stroke-width="1.5" opacity="0.09"/><line x1="-50" y1="146" x2="1650" y2="130" stroke="#fafafa" stroke-width="1.5" opacity="0.09"/><line x1="-50" y1="188" x2="1650" y2="172" stroke="#fafafa" stroke-width="1.5" opacity="0.09"/><line x1="-50" y1="230" x2="1650" y2="214" stroke="#fafafa" stroke-width="1.5" opacity="0.09"/><line x1="-50" y1="272" x2="1650" y2="256" stroke="#fafafa" stroke-width="1.5" opacity="0.09"/><polygon points="-100,0 -10,0 972,96 932,96" fill="#fafafa" opacity="0.035"/><polygon points="220,0 310,0 972,96 932,96" fill="#fafafa" opacity="0.035"/><polygon points="540,0 630,0 972,96 932,96" fill="#fafafa" opacity="0.035"/><polygon points="860,0 950,0 972,96 932,96" fill="#fafafa" opacity="0.035"/><polygon points="1180,0 1270,0 972,96 932,96" fill="#fafafa" opacity="0.035"/><polygon points="1500,0 1590,0 972,96 932,96" fill="#fafafa" opacity="0.035"/>
  <g opacity="0.95">
    <ellipse cx="1088" cy="270" rx="52" ry="34" fill="#0a0a0a" stroke="#fafafa" stroke-width="1.5" opacity="0.6"/>
    <circle cx="1088" cy="274" r="38" fill="url(#lensGlow)" opacity="0.55"/>
    <circle cx="1088" cy="274" r="14" fill="#000" opacity="0.85"/>
    <circle cx="1083" cy="270" r="3.5" fill="#d0e4e8" opacity="0.95" filter="url(#soft)"/>
    <line x1="1088" y1="236" x2="1088" y2="90" stroke="#fafafa" stroke-width="2" opacity="0.35"/>
  </g>
  <g opacity="0.6">
    <ellipse cx="384" cy="144" rx="26" ry="16" fill="#0a0a0a" stroke="#fafafa" stroke-width="1" opacity="0.4"/>
    <circle cx="384" cy="146" r="6" fill="#000" opacity="0.7"/>
  </g>
  <g opacity="0.5">
    <ellipse cx="1376" cy="108" rx="20" ry="12" fill="#0a0a0a" stroke="#fafafa" stroke-width="1" opacity="0.35"/>
    <circle cx="1376" cy="110" r="5" fill="#000" opacity="0.6"/>
  </g>
  <rect x="0" y="450" width="1600" height="450" fill="#000000" opacity="0.45"/>
  <rect x="0" y="0" width="1600" height="900" fill="#000000" opacity="0.18"/>
  <circle cx="784.7" cy="504.7" r="0.6" fill="#fafafa" opacity="0.006"/><circle cx="390.4" cy="398.9" r="0.6" fill="#fafafa" opacity="0.025"/><circle cx="125.7" cy="791.0" r="0.6" fill="#fafafa" opacity="0.029"/><circle cx="657.3" cy="256.0" r="0.6" fill="#fafafa" opacity="0.039"/><circle cx="1051.9" cy="68.9" r="0.6" fill="#fafafa" opacity="0.025"/><circle cx="376.1" cy="604.8" r="0.6" fill="#fafafa" opacity="0.008"/><circle cx="896.6" cy="438.5" r="0.6" fill="#fafafa" opacity="0.009"/><circle cx="80.1" cy="845.2" r="0.6" fill="#fafafa" opacity="0.048"/><circle cx="193.2" cy="399.8" r="0.6" fill="#fafafa" opacity="0.048"/><circle cx="302.6" cy="377.3" r="0.6" fill="#fafafa" opacity="0.028"/><circle cx="1075.0" cy="252.7" r="0.6" fill="#fafafa" opacity="0.009"/><circle cx="1577.0" cy="401.1" r="0.6" fill="#fafafa" opacity="0.012"/><circle cx="875.3" cy="297.3" r="0.6" fill="#fafafa" opacity="0.008"/><circle cx="1236.5" cy="316.5" r="0.6" fill="#fafafa" opacity="0.018"/><circle cx="127.4" cy="833.6" r="0.6" fill="#fafafa" opacity="0.012"/><circle cx="1414.6" cy="423.6" r="0.6" fill="#fafafa" opacity="0.012"/><circle cx="964.7" cy="361.6" r="0.6" fill="#fafafa" opacity="0.038"/><circle cx="1044.5" cy="122.4" r="0.6" fill="#fafafa" opacity="0.011"/><circle cx="720.6" cy="81.2" r="0.6" fill="#fafafa" opacity="0.002"/><circle cx="659.6" cy="612.8" r="0.6" fill="#fafafa" opacity="0.032"/><circle cx="1528.3" cy="292.4" r="0.6" fill="#fafafa" opacity="0.022"/><circle cx="793.2" cy="395.0" r="0.6" fill="#fafafa" opacity="0.042"/><circle cx="721.2" cy="395.4" r="0.6" fill="#fafafa" opacity="0.013"/><circle cx="378.7" cy="668.7" r="0.6" fill="#fafafa" opacity="0.007"/><circle cx="432.6" cy="690.0" r="0.6" fill="#fafafa" opacity="0.043"/><circle cx="1549.4" cy="834.2" r="0.6" fill="#fafafa" opacity="0.043"/><circle cx="1195.8" cy="576.3" r="0.6" fill="#fafafa" opacity="0.028"/><circle cx="38.6" cy="291.3" r="0.6" fill="#fafafa" opacity="0.018"/><circle cx="344.3" cy="354.2" r="0.6" fill="#fafafa" opacity="0.034"/><circle cx="1179.6" cy="240.0" r="0.6" fill="#fafafa" opacity="0.048"/><circle cx="11.2" cy="323.8" r="0.6" fill="#fafafa" opacity="0.029"/><circle cx="705.8" cy="80.5" r="0.6" fill="#fafafa" opacity="0.050"/><circle cx="730.0" cy="785.1" r="0.6" fill="#fafafa" opacity="0.029"/><circle cx="750.5" cy="112.6" r="0.6" fill="#fafafa" opacity="0.040"/><circle cx="1434.0" cy="238.0" r="0.6" fill="#fafafa" opacity="0.001"/><circle cx="247.1" cy="636.4" r="0.6" fill="#fafafa" opacity="0.035"/><circle cx="1056.5" cy="782.6" r="0.6" fill="#fafafa" opacity="0.011"/><circle cx="1328.9" cy="151.8" r="0.6" fill="#fafafa" opacity="0.002"/><circle cx="130.9" cy="18.9" r="0.6" fill="#fafafa" opacity="0.027"/><circle cx="1329.2" cy="758.9" r="0.6" fill="#fafafa" opacity="0.007"/><circle cx="790.4" cy="46.8" r="0.6" fill="#fafafa" opacity="0.014"/><circle cx="781.3" cy="57.7" r="0.6" fill="#fafafa" opacity="0.018"/><circle cx="368.5" cy="266.4" r="0.6" fill="#fafafa" opacity="0.040"/><circle cx="218.6" cy="148.1" r="0.6" fill="#fafafa" opacity="0.000"/><circle cx="998.4" cy="77.7" r="0.6" fill="#fafafa" opacity="0.020"/><circle cx="174.5" cy="430.2" r="0.6" fill="#fafafa" opacity="0.021"/><circle cx="13.5" cy="680.7" r="0.6" fill="#fafafa" opacity="0.023"/><circle cx="1182.2" cy="304.0" r="0.6" fill="#fafafa" opacity="0.047"/><circle cx="1147.1" cy="575.3" r="0.6" fill="#fafafa" opacity="0.013"/><circle cx="575.1" cy="69.4" r="0.6" fill="#fafafa" opacity="0.044"/><circle cx="132.6" cy="61.5" r="0.6" fill="#fafafa" opacity="0.009"/><circle cx="486.5" cy="26.6" r="0.6" fill="#fafafa" opacity="0.030"/><circle cx="703.3" cy="339.5" r="0.6" fill="#fafafa" opacity="0.027"/><circle cx="1449.7" cy="475.3" r="0.6" fill="#fafafa" opacity="0.021"/><circle cx="192.4" cy="809.1" r="0.6" fill="#fafafa" opacity="0.033"/><circle cx="798.1" cy="815.8" r="0.6" fill="#fafafa" opacity="0.034"/><circle cx="733.5" cy="870.4" r="0.6" fill="#fafafa" opacity="0.044"/><circle cx="665.1" cy="447.9" r="0.6" fill="#fafafa" opacity="0.035"/><circle cx="1259.7" cy="823.3" r="0.6" fill="#fafafa" opacity="0.027"/><circle cx="1583.9" cy="571.6" r="0.6" fill="#fafafa" opacity="0.041"/><circle cx="704.4" cy="67.9" r="0.6" fill="#fafafa" opacity="0.049"/><circle cx="887.9" cy="587.1" r="0.6" fill="#fafafa" opacity="0.020"/><circle cx="1201.0" cy="704.2" r="0.6" fill="#fafafa" opacity="0.025"/><circle cx="710.4" cy="794.2" r="0.6" fill="#fafafa" opacity="0.036"/><circle cx="82.8" cy="332.1" r="0.6" fill="#fafafa" opacity="0.023"/><circle cx="1584.8" cy="593.0" r="0.6" fill="#fafafa" opacity="0.008"/><circle cx="1083.1" cy="151.7" r="0.6" fill="#fafafa" opacity="0.010"/><circle cx="844.3" cy="283.4" r="0.6" fill="#fafafa" opacity="0.001"/><circle cx="1535.2" cy="463.0" r="0.6" fill="#fafafa" opacity="0.002"/><circle cx="622.4" cy="165.5" r="0.6" fill="#fafafa" opacity="0.033"/><circle cx="372.5" cy="665.9" r="0.6" fill="#fafafa" opacity="0.015"/><circle cx="1452.3" cy="539.3" r="0.6" fill="#fafafa" opacity="0.020"/><circle cx="1328.4" cy="160.5" r="0.6" fill="#fafafa" opacity="0.017"/><circle cx="667.4" cy="804.7" r="0.6" fill="#fafafa" opacity="0.028"/><circle cx="136.1" cy="146.8" r="0.6" fill="#fafafa" opacity="0.024"/><circle cx="401.0" cy="361.8" r="0.6" fill="#fafafa" opacity="0.025"/><circle cx="528.9" cy="24.8" r="0.6" fill="#fafafa" opacity="0.003"/><circle cx="1186.5" cy="410.6" r="0.6" fill="#fafafa" opacity="0.028"/><circle cx="1440.3" cy="94.4" r="0.6" fill="#fafafa" opacity="0.020"/><circle cx="357.2" cy="351.0" r="0.6" fill="#fafafa" opacity="0.002"/><circle cx="203.6" cy="655.6" r="0.6" fill="#fafafa" opacity="0.043"/><circle cx="46.3" cy="483.1" r="0.6" fill="#fafafa" opacity="0.014"/><circle cx="552.0" cy="208.6" r="0.6" fill="#fafafa" opacity="0.037"/><circle cx="787.4" cy="206.9" r="0.6" fill="#fafafa" opacity="0.031"/><circle cx="1419.0" cy="853.2" r="0.6" fill="#fafafa" opacity="0.019"/><circle cx="1513.6" cy="722.4" r="0.6" fill="#fafafa" opacity="0.021"/><circle cx="137.8" cy="189.5" r="0.6" fill="#fafafa" opacity="0.007"/><circle cx="1158.3" cy="529.5" r="0.6" fill="#fafafa" opacity="0.048"/><circle cx="441.8" cy="317.4" r="0.6" fill="#fafafa" opacity="0.016"/><circle cx="254.9" cy="828.2" r="0.6" fill="#fafafa" opacity="0.031"/><circle cx="1264.3" cy="637.0" r="0.6" fill="#fafafa" opacity="0.014"/><circle cx="936.7" cy="118.7" r="0.6" fill="#fafafa" opacity="0.035"/><circle cx="1538.7" cy="548.3" r="0.6" fill="#fafafa" opacity="0.017"/><circle cx="536.9" cy="500.8" r="0.6" fill="#fafafa" opacity="0.028"/><circle cx="198.2" cy="351.2" r="0.6" fill="#fafafa" opacity="0.041"/><circle cx="1189.1" cy="474.6" r="0.6" fill="#fafafa" opacity="0.026"/><circle cx="976.3" cy="345.8" r="0.6" fill="#fafafa" opacity="0.004"/><circle cx="226.4" cy="340.0" r="0.6" fill="#fafafa" opacity="0.046"/><circle cx="1206.2" cy="832.1" r="0.6" fill="#fafafa" opacity="0.022"/><circle cx="1382.3" cy="397.1" r="0.6" fill="#fafafa" opacity="0.004"/><circle cx="1421.3" cy="310.0" r="0.6" fill="#fafafa" opacity="0.012"/><circle cx="390.0" cy="45.9" r="0.6" fill="#fafafa" opacity="0.018"/><circle cx="554.9" cy="879.6" r="0.6" fill="#fafafa" opacity="0.041"/><circle cx="982.8" cy="486.3" r="0.6" fill="#fafafa" opacity="0.003"/><circle cx="740.4" cy="140.9" r="0.6" fill="#fafafa" opacity="0.024"/><circle cx="494.2" cy="218.4" r="0.6" fill="#fafafa" opacity="0.026"/><circle cx="911.0" cy="193.9" r="0.6" fill="#fafafa" opacity="0.029"/><circle cx="1057.5" cy="442.2" r="0.6" fill="#fafafa" opacity="0.005"/><circle cx="0.2" cy="438.5" r="0.6" fill="#fafafa" opacity="0.023"/><circle cx="5.9" cy="557.6" r="0.6" fill="#fafafa" opacity="0.005"/><circle cx="141.2" cy="274.7" r="0.6" fill="#fafafa" opacity="0.022"/><circle cx="1072.9" cy="864.7" r="0.6" fill="#fafafa" opacity="0.044"/><circle cx="267.5" cy="2.7" r="0.6" fill="#fafafa" opacity="0.042"/><circle cx="1591.7" cy="763.5" r="0.6" fill="#fafafa" opacity="0.038"/><circle cx="912.2" cy="822.3" r="0.6" fill="#fafafa" opacity="0.001"/><circle cx="495.7" cy="554.0" r="0.6" fill="#fafafa" opacity="0.003"/><circle cx="1008.8" cy="333.6" r="0.6" fill="#fafafa" opacity="0.015"/><circle cx="1518.2" cy="536.1" r="0.6" fill="#fafafa" opacity="0.007"/><circle cx="1090.5" cy="636.5" r="0.6" fill="#fafafa" opacity="0.001"/><circle cx="392.5" cy="109.8" r="0.6" fill="#fafafa" opacity="0.016"/><circle cx="90.8" cy="231.1" r="0.6" fill="#fafafa" opacity="0.025"/><circle cx="852.1" cy="475.3" r="0.6" fill="#fafafa" opacity="0.047"/><circle cx="143.0" cy="317.4" r="0.6" fill="#fafafa" opacity="0.004"/><circle cx="230.2" cy="132.4" r="0.6" fill="#fafafa" opacity="0.016"/><circle cx="180.3" cy="295.3" r="0.6" fill="#fafafa" opacity="0.005"/><circle cx="660.1" cy="281.2" r="0.6" fill="#fafafa" opacity="0.041"/><circle cx="736.1" cy="464.9" r="0.6" fill="#fafafa" opacity="0.045"/><circle cx="1075.2" cy="321.6" r="0.6" fill="#fafafa" opacity="0.037"/><circle cx="743.8" cy="226.2" r="0.6" fill="#fafafa" opacity="0.039"/><circle cx="408.8" cy="553.7" r="0.6" fill="#fafafa" opacity="0.022"/><circle cx="736.7" cy="779.1" r="0.6" fill="#fafafa" opacity="0.005"/><circle cx="794.3" cy="377.5" r="0.6" fill="#fafafa" opacity="0.011"/><circle cx="1248.1" cy="623.7" r="0.6" fill="#fafafa" opacity="0.010"/><circle cx="1164.9" cy="92.9" r="0.6" fill="#fafafa" opacity="0.023"/><circle cx="1211.4" cy="60.0" r="0.6" fill="#fafafa" opacity="0.020"/><circle cx="454.1" cy="0.0" r="0.6" fill="#fafafa" opacity="0.023"/><circle cx="1159.8" cy="288.0" r="0.6" fill="#fafafa" opacity="0.001"/><circle cx="795.1" cy="398.8" r="0.6" fill="#fafafa" opacity="0.027"/><circle cx="26.8" cy="707.6" r="0.6" fill="#fafafa" opacity="0.021"/><circle cx="1121.4" cy="689.2" r="0.6" fill="#fafafa" opacity="0.004"/><circle cx="1545.6" cy="718.8" r="0.6" fill="#fafafa" opacity="0.047"/><circle cx="366.1" cy="271.3" r="0.6" fill="#fafafa" opacity="0.019"/><circle cx="1449.6" cy="621.8" r="0.6" fill="#fafafa" opacity="0.043"/><circle cx="662.7" cy="345.1" r="0.6" fill="#fafafa" opacity="0.040"/><circle cx="272.1" cy="716.4" r="0.6" fill="#fafafa" opacity="0.029"/><circle cx="944.4" cy="310.6" r="0.6" fill="#fafafa" opacity="0.032"/><circle cx="146.4" cy="402.7" r="0.6" fill="#fafafa" opacity="0.019"/><circle cx="144.7" cy="467.7" r="0.6" fill="#fafafa" opacity="0.012"/><circle cx="6.0" cy="880.6" r="0.6" fill="#fafafa" opacity="0.031"/><circle cx="396.9" cy="216.4" r="0.6" fill="#fafafa" opacity="0.047"/><circle cx="384.0" cy="650.2" r="0.6" fill="#fafafa" opacity="0.032"/><circle cx="634.2" cy="756.9" r="0.6" fill="#fafafa" opacity="0.005"/><circle cx="214.0" cy="11.5" r="0.6" fill="#fafafa" opacity="0.037"/><circle cx="1390.0" cy="589.0" r="0.6" fill="#fafafa" opacity="0.000"/><circle cx="29.1" cy="164.4" r="0.6" fill="#fafafa" opacity="0.015"/><circle cx="1597.7" cy="12.8" r="0.6" fill="#fafafa" opacity="0.001"/><circle cx="362.7" cy="509.0" r="0.6" fill="#fafafa" opacity="0.031"/><circle cx="190.6" cy="228.2" r="0.6" fill="#fafafa" opacity="0.024"/><circle cx="148.2" cy="445.3" r="0.6" fill="#fafafa" opacity="0.001"/><circle cx="902.0" cy="635.3" r="0.6" fill="#fafafa" opacity="0.035"/><circle cx="1518.8" cy="273.2" r="0.6" fill="#fafafa" opacity="0.044"/><circle cx="1065.3" cy="634.1" r="0.6" fill="#fafafa" opacity="0.001"/><circle cx="208.0" cy="292.8" r="0.6" fill="#fafafa" opacity="0.025"/><circle cx="1213.7" cy="524.5" r="0.6" fill="#fafafa" opacity="0.039"/><circle cx="1549.0" cy="804.1" r="0.6" fill="#fafafa" opacity="0.011"/><circle cx="280.7" cy="606.6" r="0.6" fill="#fafafa" opacity="0.015"/><circle cx="1275.2" cy="307.0" r="0.6" fill="#fafafa" opacity="0.019"/><circle cx="399.5" cy="280.4" r="0.6" fill="#fafafa" opacity="0.046"/><circle cx="1520.0" cy="1.7" r="0.6" fill="#fafafa" opacity="0.016"/><circle cx="503.4" cy="745.8" r="0.6" fill="#fafafa" opacity="0.049"/><circle cx="1216.6" cy="187.9" r="0.6" fill="#fafafa" opacity="0.017"/><circle cx="1126.0" cy="502.9" r="0.6" fill="#fafafa" opacity="0.041"/><circle cx="898.3" cy="265.9" r="0.6" fill="#fafafa" opacity="0.040"/><circle cx="1200.3" cy="751.7" r="0.6" fill="#fafafa" opacity="0.037"/><circle cx="1098.6" cy="535.5" r="0.6" fill="#fafafa" opacity="0.002"/><circle cx="1259.9" cy="892.2" r="0.6" fill="#fafafa" opacity="0.006"/><circle cx="750.8" cy="396.7" r="0.6" fill="#fafafa" opacity="0.019"/><circle cx="237.9" cy="324.3" r="0.6" fill="#fafafa" opacity="0.013"/><circle cx="388.1" cy="149.7" r="0.6" fill="#fafafa" opacity="0.007"/><circle cx="267.9" cy="248.0" r="0.6" fill="#fafafa" opacity="0.024"/><circle cx="543.9" cy="94.3" r="0.6" fill="#fafafa" opacity="0.034"/><circle cx="283.0" cy="63.5" r="0.6" fill="#fafafa" opacity="0.008"/><circle cx="151.6" cy="530.6" r="0.6" fill="#fafafa" opacity="0.016"/><circle cx="816.6" cy="70.6" r="0.6" fill="#fafafa" opacity="0.030"/><circle cx="1344.5" cy="858.5" r="0.6" fill="#fafafa" opacity="0.020"/><circle cx="802.1" cy="569.4" r="0.6" fill="#fafafa" opacity="0.007"/><circle cx="1455.9" cy="478.1" r="0.6" fill="#fafafa" opacity="0.012"/><circle cx="772.7" cy="59.8" r="0.6" fill="#fafafa" opacity="0.006"/><circle cx="1019.1" cy="589.4" r="0.6" fill="#fafafa" opacity="0.010"/><circle cx="1261.9" cy="641.9" r="0.6" fill="#fafafa" opacity="0.044"/><circle cx="567.6" cy="592.3" r="0.6" fill="#fafafa" opacity="0.029"/><circle cx="1202.9" cy="815.7" r="0.6" fill="#fafafa" opacity="0.036"/><circle cx="634.5" cy="786.9" r="0.6" fill="#fafafa" opacity="0.036"/><circle cx="1129.1" cy="881.1" r="0.6" fill="#fafafa" opacity="0.000"/><circle cx="153.3" cy="573.2" r="0.6" fill="#fafafa" opacity="0.049"/><circle cx="1573.9" cy="238.2" r="0.6" fill="#fafafa" opacity="0.003"/><circle cx="1257.3" cy="251.1" r="0.6" fill="#fafafa" opacity="0.033"/><circle cx="1470.4" cy="87.0" r="0.6" fill="#fafafa" opacity="0.011"/><circle cx="1279.8" cy="120.8" r="0.6" fill="#fafafa" opacity="0.006"/><circle cx="1352.2" cy="727.4" r="0.6" fill="#fafafa" opacity="0.040"/><circle cx="754.2" cy="482.0" r="0.6" fill="#fafafa" opacity="0.034"/><circle cx="152.5" cy="659.5" r="0.6" fill="#fafafa" opacity="0.008"/><circle cx="213.8" cy="735.0" r="0.6" fill="#fafafa" opacity="0.033"/><circle cx="4.6" cy="183.3" r="0.6" fill="#fafafa" opacity="0.031"/><circle cx="191.8" cy="279.6" r="0.6" fill="#fafafa" opacity="0.022"/><circle cx="1442.0" cy="498.8" r="0.6" fill="#fafafa" opacity="0.026"/><circle cx="1221.7" cy="315.8" r="0.6" fill="#fafafa" opacity="0.015"/><circle cx="197.8" cy="105.9" r="0.6" fill="#fafafa" opacity="0.009"/><circle cx="636.8" cy="243.8" r="0.6" fill="#fafafa" opacity="0.030"/><circle cx="5.5" cy="204.6" r="0.6" fill="#fafafa" opacity="0.047"/><circle cx="570.5" cy="363.4" r="0.6" fill="#fafafa" opacity="0.033"/><circle cx="1398.4" cy="195.1" r="0.6" fill="#fafafa" opacity="0.007"/><circle cx="1555.9" cy="74.7" r="0.6" fill="#fafafa" opacity="0.041"/><circle cx="109.8" cy="377.2" r="0.6" fill="#fafafa" opacity="0.006"/><circle cx="926.6" cy="577.6" r="0.6" fill="#fafafa" opacity="0.021"/><circle cx="1473.0" cy="150.9" r="0.6" fill="#fafafa" opacity="0.009"/><circle cx="815.8" cy="372.2" r="0.6" fill="#fafafa" opacity="0.040"/><circle cx="1221.5" cy="716.4" r="0.6" fill="#fafafa" opacity="0.035"/><circle cx="156.8" cy="658.5" r="0.6" fill="#fafafa" opacity="0.014"/><circle cx="1488.4" cy="573.5" r="0.6" fill="#fafafa" opacity="0.048"/><circle cx="1083.0" cy="836.4" r="0.6" fill="#fafafa" opacity="0.009"/><circle cx="1207.2" cy="22.3" r="0.6" fill="#fafafa" opacity="0.017"/><circle cx="927.8" cy="306.0" r="0.6" fill="#fafafa" opacity="0.043"/><circle cx="911.2" cy="262.7" r="0.6" fill="#fafafa" opacity="0.008"/><circle cx="224.3" cy="267.3" r="0.6" fill="#fafafa" opacity="0.032"/><circle cx="1133.7" cy="694.8" r="0.6" fill="#fafafa" opacity="0.037"/><circle cx="1106.1" cy="120.2" r="0.6" fill="#fafafa" opacity="0.043"/><circle cx="808.1" cy="718.6" r="0.6" fill="#fafafa" opacity="0.021"/><circle cx="906.4" cy="164.8" r="0.6" fill="#fafafa" opacity="0.042"/><circle cx="467.6" cy="634.0" r="0.6" fill="#fafafa" opacity="0.027"/><circle cx="158.5" cy="701.1" r="0.6" fill="#fafafa" opacity="0.046"/><circle cx="645.7" cy="741.1" r="0.6" fill="#fafafa" opacity="0.021"/><circle cx="995.9" cy="229.1" r="0.6" fill="#fafafa" opacity="0.022"/><circle cx="275.6" cy="439.9" r="0.6" fill="#fafafa" opacity="0.020"/><circle cx="751.7" cy="848.7" r="0.6" fill="#fafafa" opacity="0.037"/><circle cx="1490.7" cy="30.3" r="0.6" fill="#fafafa" opacity="0.042"/><circle cx="1559.4" cy="159.9" r="0.6" fill="#fafafa" opacity="0.006"/><circle cx="24.4" cy="712.5" r="0.6" fill="#fafafa" opacity="0.001"/><circle cx="752.3" cy="262.9" r="0.6" fill="#fafafa" opacity="0.048"/><circle cx="1209.8" cy="86.2" r="0.6" fill="#fafafa" opacity="0.016"/><circle cx="463.7" cy="557.5" r="0.6" fill="#fafafa" opacity="0.027"/><circle cx="780.5" cy="251.7" r="0.6" fill="#fafafa" opacity="0.002"/><circle cx="1226.9" cy="443.8" r="0.6" fill="#fafafa" opacity="0.012"/><circle cx="869.7" cy="608.8" r="0.6" fill="#fafafa" opacity="0.027"/><circle cx="375.4" cy="221.7" r="0.6" fill="#fafafa" opacity="0.019"/><circle cx="410.7" cy="557.5" r="0.6" fill="#fafafa" opacity="0.007"/><circle cx="42.3" cy="191.3" r="0.6" fill="#fafafa" opacity="0.014"/><circle cx="1536.9" cy="398.0" r="0.6" fill="#fafafa" opacity="0.009"/><circle cx="761.1" cy="652.6" r="0.6" fill="#fafafa" opacity="0.014"/><circle cx="1581.6" cy="430.1" r="0.6" fill="#fafafa" opacity="0.049"/><circle cx="1465.1" cy="105.5" r="0.6" fill="#fafafa" opacity="0.036"/><circle cx="1078.2" cy="53.9" r="0.6" fill="#fafafa" opacity="0.044"/><circle cx="1087.6" cy="650.1" r="0.6" fill="#fafafa" opacity="0.046"/><circle cx="560.0" cy="469.3" r="0.6" fill="#fafafa" opacity="0.011"/><circle cx="162.0" cy="786.4" r="0.6" fill="#fafafa" opacity="0.011"/><circle cx="560.3" cy="176.4" r="0.6" fill="#fafafa" opacity="0.017"/><circle cx="821.5" cy="814.3" r="0.6" fill="#fafafa" opacity="0.048"/><circle cx="12.4" cy="375.2" r="0.6" fill="#fafafa" opacity="0.027"/><circle cx="399.6" cy="133.9" r="0.6" fill="#fafafa" opacity="0.024"/><circle cx="1049.7" cy="465.6" r="0.6" fill="#fafafa" opacity="0.009"/><circle cx="1029.5" cy="845.2" r="0.6" fill="#fafafa" opacity="0.004"/><circle cx="1005.6" cy="747.7" r="0.6" fill="#fafafa" opacity="0.030"/><circle cx="44.6" cy="548.2" r="0.6" fill="#fafafa" opacity="0.007"/><circle cx="413.3" cy="621.5" r="0.6" fill="#fafafa" opacity="0.006"/><circle cx="1178.2" cy="442.8" r="0.6" fill="#fafafa" opacity="0.048"/><circle cx="1406.2" cy="386.9" r="0.6" fill="#fafafa" opacity="0.003"/><circle cx="163.7" cy="829.0" r="0.6" fill="#fafafa" opacity="0.044"/><circle cx="1317.6" cy="344.1" r="0.6" fill="#fafafa" opacity="0.039"/><circle cx="734.4" cy="207.0" r="0.6" fill="#fafafa" opacity="0.011"/><circle cx="680.8" cy="792.8" r="0.6" fill="#fafafa" opacity="0.030"/><circle cx="223.6" cy="676.6" r="0.6" fill="#fafafa" opacity="0.017"/><circle cx="29.3" cy="233.3" r="0.6" fill="#fafafa" opacity="0.043"/><circle cx="764.6" cy="737.9" r="0.6" fill="#fafafa" opacity="0.029"/><circle cx="1496.2" cy="765.4" r="0.6" fill="#fafafa" opacity="0.044"/><circle cx="1290.8" cy="690.8" r="0.6" fill="#fafafa" opacity="0.012"/><circle cx="815.0" cy="889.1" r="0.6" fill="#fafafa" opacity="0.001"/><circle cx="735.5" cy="835.4" r="0.6" fill="#fafafa" opacity="0.033"/><circle cx="119.0" cy="4.6" r="0.6" fill="#fafafa" opacity="0.029"/><circle cx="1232.1" cy="571.7" r="0.6" fill="#fafafa" opacity="0.009"/><circle cx="1541.5" cy="211.7" r="0.6" fill="#fafafa" opacity="0.045"/><circle cx="113.9" cy="199.6" r="0.6" fill="#fafafa" opacity="0.008"/><circle cx="815.9" cy="10.5" r="0.6" fill="#fafafa" opacity="0.017"/><circle cx="1114.2" cy="19.2" r="0.6" fill="#fafafa" opacity="0.044"/><circle cx="75.4" cy="600.9" r="0.6" fill="#fafafa" opacity="0.010"/><circle cx="1566.3" cy="330.5" r="0.6" fill="#fafafa" opacity="0.036"/><circle cx="1453.5" cy="483.0" r="0.6" fill="#fafafa" opacity="0.042"/><circle cx="403.6" cy="533.4" r="0.6" fill="#fafafa" opacity="0.050"/><circle cx="683.4" cy="856.8" r="0.6" fill="#fafafa" opacity="0.029"/><circle cx="1359.5" cy="28.0" r="0.6" fill="#fafafa" opacity="0.002"/><circle cx="1498.5" cy="222.2" r="0.6" fill="#fafafa" opacity="0.038"/><circle cx="167.2" cy="14.3" r="0.6" fill="#fafafa" opacity="0.009"/><circle cx="1232.1" cy="679.3" r="0.6" fill="#fafafa" opacity="0.035"/><circle cx="560.1" cy="792.3" r="0.6" fill="#fafafa" opacity="0.037"/><circle cx="417.6" cy="728.1" r="0.6" fill="#fafafa" opacity="0.037"/><circle cx="1471.5" cy="861.9" r="0.6" fill="#fafafa" opacity="0.005"/><circle cx="1188.3" cy="668.5" r="0.6" fill="#fafafa" opacity="0.011"/><circle cx="234.7" cy="523.1" r="0.6" fill="#fafafa" opacity="0.027"/><circle cx="877.4" cy="800.6" r="0.6" fill="#fafafa" opacity="0.023"/><circle cx="583.1" cy="76.1" r="0.6" fill="#fafafa" opacity="0.021"/><circle cx="18.5" cy="524.4" r="0.6" fill="#fafafa" opacity="0.041"/><circle cx="1450.1" cy="720.7" r="0.6" fill="#fafafa" opacity="0.003"/><circle cx="744.7" cy="139.9" r="0.6" fill="#fafafa" opacity="0.030"/><circle cx="168.9" cy="57.0" r="0.6" fill="#fafafa" opacity="0.041"/><circle cx="389.4" cy="847.0" r="0.6" fill="#fafafa" opacity="0.008"/><circle cx="472.9" cy="184.9" r="0.6" fill="#fafafa" opacity="0.000"/><circle cx="1086.0" cy="245.7" r="0.6" fill="#fafafa" opacity="0.040"/><circle cx="1295.4" cy="504.5" r="0.6" fill="#fafafa" opacity="0.048"/><circle cx="167.8" cy="436.2" r="0.6" fill="#fafafa" opacity="0.045"/><circle cx="1569.8" cy="415.8" r="0.6" fill="#fafafa" opacity="0.001"/><circle cx="1368.1" cy="818.3" r="0.6" fill="#fafafa" opacity="0.038"/><circle cx="229.3" cy="218.7" r="0.6" fill="#fafafa" opacity="0.026"/><circle cx="420.2" cy="792.1" r="0.6" fill="#fafafa" opacity="0.036"/><circle cx="1007.4" cy="213.3" r="0.6" fill="#fafafa" opacity="0.039"/><circle cx="1057.5" cy="657.5" r="0.6" fill="#fafafa" opacity="0.005"/><circle cx="1237.3" cy="699.6" r="0.6" fill="#fafafa" opacity="0.007"/><circle cx="613.4" cy="714.6" r="0.6" fill="#fafafa" opacity="0.014"/><circle cx="1452.4" cy="177.5" r="0.6" fill="#fafafa" opacity="0.047"/><circle cx="1221.1" cy="363.4" r="0.6" fill="#fafafa" opacity="0.027"/><circle cx="586.0" cy="747.1" r="0.6" fill="#fafafa" opacity="0.025"/><circle cx="213.9" cy="803.8" r="0.6" fill="#fafafa" opacity="0.012"/><circle cx="771.5" cy="8.4" r="0.6" fill="#fafafa" opacity="0.008"/><circle cx="1325.3" cy="535.9" r="0.6" fill="#fafafa" opacity="0.035"/><circle cx="942.2" cy="61.4" r="0.6" fill="#fafafa" opacity="0.014"/><circle cx="288.6" cy="759.7" r="0.6" fill="#fafafa" opacity="0.014"/><circle cx="31.3" cy="306.0" r="0.6" fill="#fafafa" opacity="0.007"/><circle cx="837.0" cy="875.1" r="0.6" fill="#fafafa" opacity="0.014"/><circle cx="172.4" cy="142.2" r="0.6" fill="#fafafa" opacity="0.006"/><circle cx="304.0" cy="282.2" r="0.6" fill="#fafafa" opacity="0.003"/><circle cx="298.6" cy="770.2" r="0.6" fill="#fafafa" opacity="0.026"/><circle cx="822.8" cy="181.0" r="0.6" fill="#fafafa" opacity="0.047"/><circle cx="943.3" cy="689.8" r="0.6" fill="#fafafa" opacity="0.035"/><circle cx="1326.8" cy="871.5" r="0.6" fill="#fafafa" opacity="0.012"/><circle cx="1039.9" cy="201.1" r="0.6" fill="#fafafa" opacity="0.049"/><circle cx="749.3" cy="853.6" r="0.6" fill="#fafafa" opacity="0.016"/><circle cx="1121.7" cy="504.0" r="0.6" fill="#fafafa" opacity="0.035"/><circle cx="1223.7" cy="427.3" r="0.6" fill="#fafafa" opacity="0.026"/><circle cx="121.9" cy="98.6" r="0.6" fill="#fafafa" opacity="0.009"/><circle cx="83.2" cy="792.8" r="0.6" fill="#fafafa" opacity="0.006"/><circle cx="174.1" cy="184.9" r="0.6" fill="#fafafa" opacity="0.038"/><circle cx="1061.3" cy="449.9" r="0.6" fill="#fafafa" opacity="0.026"/><circle cx="211.4" cy="162.8" r="0.6" fill="#fafafa" opacity="0.039"/><circle cx="1491.2" cy="598.7" r="0.6" fill="#fafafa" opacity="0.000"/><circle cx="767.3" cy="332.4" r="0.6" fill="#fafafa" opacity="0.029"/><circle cx="306.3" cy="639.1" r="0.6" fill="#fafafa" opacity="0.046"/><circle cx="775.0" cy="93.7" r="0.6" fill="#fafafa" opacity="0.023"/><circle cx="1239.9" cy="871.2" r="0.6" fill="#fafafa" opacity="0.031"/><circle cx="767.8" cy="646.6" r="0.6" fill="#fafafa" opacity="0.040"/><circle cx="25.4" cy="695.0" r="0.6" fill="#fafafa" opacity="0.021"/><circle cx="1279.2" cy="491.2" r="0.6" fill="#fafafa" opacity="0.044"/><circle cx="396.0" cy="410.4" r="0.6" fill="#fafafa" opacity="0.032"/><circle cx="1242.5" cy="827.5" r="0.6" fill="#fafafa" opacity="0.004"/><circle cx="1285.2" cy="317.5" r="0.6" fill="#fafafa" opacity="0.032"/><circle cx="1190.9" cy="155.5" r="0.6" fill="#fafafa" opacity="0.036"/><circle cx="26.2" cy="716.3" r="0.6" fill="#fafafa" opacity="0.037"/><circle cx="57.9" cy="575.1" r="0.6" fill="#fafafa" opacity="0.006"/><circle cx="352.5" cy="106.7" r="0.6" fill="#fafafa" opacity="0.013"/><circle cx="1576.7" cy="586.3" r="0.6" fill="#fafafa" opacity="0.031"/><circle cx="1197.2" cy="588.8" r="0.6" fill="#fafafa" opacity="0.029"/><circle cx="1480.7" cy="489.3" r="0.6" fill="#fafafa" opacity="0.028"/><circle cx="1493.8" cy="662.6" r="0.6" fill="#fafafa" opacity="0.049"/><circle cx="303.2" cy="583.9" r="0.6" fill="#fafafa" opacity="0.013"/><circle cx="175.5" cy="628.1" r="0.6" fill="#fafafa" opacity="0.041"/><circle cx="177.5" cy="270.2" r="0.6" fill="#fafafa" opacity="0.003"/><circle cx="975.8" cy="785.2" r="0.6" fill="#fafafa" opacity="0.021"/><circle cx="37.1" cy="748.1" r="0.6" fill="#fafafa" opacity="0.015"/><circle cx="1228.0" cy="533.9" r="0.6" fill="#fafafa" opacity="0.007"/><circle cx="415.2" cy="517.7" r="0.6" fill="#fafafa" opacity="0.016"/><circle cx="1465.3" cy="174.4" r="0.6" fill="#fafafa" opacity="0.014"/><circle cx="245.1" cy="779.0" r="0.6" fill="#fafafa" opacity="0.022"/><circle cx="621.1" cy="6.5" r="0.6" fill="#fafafa" opacity="0.010"/><circle cx="60.2" cy="31.9" r="0.6" fill="#fafafa" opacity="0.049"/><circle cx="828.8" cy="330.3" r="0.6" fill="#fafafa" opacity="0.010"/><circle cx="393.8" cy="376.5" r="0.6" fill="#fafafa" opacity="0.015"/><circle cx="1021.7" cy="545.7" r="0.6" fill="#fafafa" opacity="0.033"/><circle cx="179.3" cy="312.8" r="0.6" fill="#fafafa" opacity="0.036"/><circle cx="133.1" cy="52.8" r="0.6" fill="#fafafa" opacity="0.044"/><circle cx="1549.9" cy="140.7" r="0.6" fill="#fafafa" opacity="0.028"/><circle cx="296.4" cy="51.6" r="0.6" fill="#fafafa" opacity="0.010"/><circle cx="239.1" cy="160.3" r="0.6" fill="#fafafa" opacity="0.010"/><circle cx="444.8" cy="842.0" r="0.6" fill="#fafafa" opacity="0.048"/><circle cx="1580.1" cy="671.6" r="0.6" fill="#fafafa" opacity="0.046"/><circle cx="1111.8" cy="24.1" r="0.6" fill="#fafafa" opacity="0.024"/><circle cx="1306.4" cy="174.5" r="0.6" fill="#fafafa" opacity="0.004"/><circle cx="1230.6" cy="597.9" r="0.6" fill="#fafafa" opacity="0.005"/><circle cx="1551.1" cy="769.2" r="0.6" fill="#fafafa" opacity="0.000"/><circle cx="1334.6" cy="163.3" r="0.6" fill="#fafafa" opacity="0.009"/><circle cx="1247.7" cy="55.4" r="0.6" fill="#fafafa" opacity="0.002"/><circle cx="357.1" cy="820.4" r="0.6" fill="#fafafa" opacity="0.000"/><circle cx="929.4" cy="133.4" r="0.6" fill="#fafafa" opacity="0.025"/><circle cx="431.4" cy="169.2" r="0.6" fill="#fafafa" opacity="0.047"/><circle cx="1129.7" cy="403.0" r="0.6" fill="#fafafa" opacity="0.036"/><circle cx="491.0" cy="309.7" r="0.6" fill="#fafafa" opacity="0.015"/><circle cx="781.9" cy="264.2" r="0.6" fill="#fafafa" opacity="0.003"/><circle cx="1069.0" cy="641.8" r="0.6" fill="#fafafa" opacity="0.022"/><circle cx="419.2" cy="17.2" r="0.6" fill="#fafafa" opacity="0.042"/><circle cx="1099.0" cy="565.5" r="0.6" fill="#fafafa" opacity="0.034"/><circle cx="575.0" cy="861.8" r="0.6" fill="#fafafa" opacity="0.019"/><circle cx="1114.1" cy="381.0" r="0.6" fill="#fafafa" opacity="0.017"/><circle cx="182.7" cy="398.1" r="0.6" fill="#fafafa" opacity="0.001"/><circle cx="47.7" cy="388.1" r="0.6" fill="#fafafa" opacity="0.039"/><circle cx="1375.6" cy="726.0" r="0.6" fill="#fafafa" opacity="0.004"/><circle cx="33.2" cy="886.9" r="0.6" fill="#fafafa" opacity="0.017"/><circle cx="1487.0" cy="345.6" r="0.6" fill="#fafafa" opacity="0.047"/><circle cx="3.8" cy="377.3" r="0.6" fill="#fafafa" opacity="0.016"/><circle cx="1050.3" cy="456.9" r="0.6" fill="#fafafa" opacity="0.044"/><circle cx="493.0" cy="59.4" r="0.6" fill="#fafafa" opacity="0.003"/><circle cx="598.7" cy="459.8" r="0.6" fill="#fafafa" opacity="0.013"/><circle cx="434.0" cy="233.2" r="0.6" fill="#fafafa" opacity="0.045"/><circle cx="665.7" cy="654.4" r="0.6" fill="#fafafa" opacity="0.021"/><circle cx="360.2" cy="298.6" r="0.6" fill="#fafafa" opacity="0.010"/><circle cx="184.5" cy="440.7" r="0.6" fill="#fafafa" opacity="0.033"/><circle cx="805.0" cy="555.7" r="0.6" fill="#fafafa" opacity="0.012"/><circle cx="1288.4" cy="118.6" r="0.6" fill="#fafafa" opacity="0.018"/><circle cx="701.6" cy="404.5" r="0.6" fill="#fafafa" opacity="0.020"/><circle cx="1311.0" cy="888.3" r="0.6" fill="#fafafa" opacity="0.040"/><circle cx="583.3" cy="144.9" r="0.6" fill="#fafafa" opacity="0.049"/><circle cx="785.3" cy="349.5" r="0.6" fill="#fafafa" opacity="0.018"/><circle cx="983.6" cy="77.0" r="0.6" fill="#fafafa" opacity="0.017"/><circle cx="244.9" cy="602.5" r="0.6" fill="#fafafa" opacity="0.018"/><circle cx="835.8" cy="500.8" r="0.6" fill="#fafafa" opacity="0.040"/><circle cx="222.9" cy="147.1" r="0.6" fill="#fafafa" opacity="0.006"/><circle cx="673.1" cy="816.3" r="0.6" fill="#fafafa" opacity="0.035"/><circle cx="1252.9" cy="183.3" r="0.6" fill="#fafafa" opacity="0.049"/><circle cx="1028.9" cy="423.4" r="0.6" fill="#fafafa" opacity="0.018"/><circle cx="668.0" cy="111.3" r="0.6" fill="#fafafa" opacity="0.014"/><circle cx="836.6" cy="522.1" r="0.6" fill="#fafafa" opacity="0.007"/><circle cx="601.6" cy="230.9" r="0.6" fill="#fafafa" opacity="0.017"/><circle cx="629.5" cy="512.6" r="0.6" fill="#fafafa" opacity="0.017"/><circle cx="1587.1" cy="842.2" r="0.6" fill="#fafafa" opacity="0.026"/><circle cx="940.9" cy="694.7" r="0.6" fill="#fafafa" opacity="0.015"/><circle cx="957.7" cy="445.1" r="0.6" fill="#fafafa" opacity="0.006"/><circle cx="704.1" cy="468.4" r="0.6" fill="#fafafa" opacity="0.019"/><circle cx="846.9" cy="239.7" r="0.6" fill="#fafafa" opacity="0.024"/><circle cx="452.6" cy="133.9" r="0.6" fill="#fafafa" opacity="0.044"/><circle cx="187.9" cy="526.0" r="0.6" fill="#fafafa" opacity="0.048"/><circle cx="719.5" cy="891.0" r="0.6" fill="#fafafa" opacity="0.008"/><circle cx="1114.1" cy="703.9" r="0.6" fill="#fafafa" opacity="0.044"/><circle cx="438.3" cy="339.8" r="0.6" fill="#fafafa" opacity="0.027"/><circle cx="958.9" cy="173.5" r="0.6" fill="#fafafa" opacity="0.027"/><circle cx="142.3" cy="580.2" r="0.6" fill="#fafafa" opacity="0.017"/><circle cx="255.4" cy="134.8" r="0.6" fill="#fafafa" opacity="0.016"/><circle cx="364.8" cy="112.3" r="0.6" fill="#fafafa" opacity="0.046"/><circle cx="1137.2" cy="887.7" r="0.6" fill="#fafafa" opacity="0.027"/><circle cx="39.2" cy="136.1" r="0.6" fill="#fafafa" opacity="0.030"/><circle cx="937.5" cy="32.3" r="0.6" fill="#fafafa" opacity="0.026"/><circle cx="1298.8" cy="51.5" r="0.6" fill="#fafafa" opacity="0.036"/><circle cx="189.6" cy="568.6" r="0.6" fill="#fafafa" opacity="0.031"/><circle cx="1476.8" cy="158.6" r="0.6" fill="#fafafa" opacity="0.030"/><circle cx="1027.0" cy="96.6" r="0.6" fill="#fafafa" opacity="0.007"/><circle cx="1106.7" cy="757.4" r="0.6" fill="#fafafa" opacity="0.030"/><circle cx="782.8" cy="716.2" r="0.6" fill="#fafafa" opacity="0.021"/><circle cx="721.8" cy="347.8" r="0.6" fill="#fafafa" opacity="0.001"/><circle cx="1590.5" cy="27.4" r="0.6" fill="#fafafa" opacity="0.041"/><circle cx="855.5" cy="130.0" r="0.6" fill="#fafafa" opacity="0.011"/><circle cx="783.4" cy="130.4" r="0.6" fill="#fafafa" opacity="0.032"/><circle cx="440.9" cy="403.7" r="0.6" fill="#fafafa" opacity="0.025"/><circle cx="494.8" cy="425.0" r="0.6" fill="#fafafa" opacity="0.012"/><circle cx="11.6" cy="569.2" r="0.6" fill="#fafafa" opacity="0.012"/><circle cx="1258.0" cy="311.3" r="0.6" fill="#fafafa" opacity="0.046"/><circle cx="100.8" cy="26.3" r="0.6" fill="#fafafa" opacity="0.036"/><circle cx="406.5" cy="89.2" r="0.6" fill="#fafafa" opacity="0.003"/><circle cx="1241.8" cy="875.0" r="0.6" fill="#fafafa" opacity="0.016"/><circle cx="73.4" cy="58.8" r="0.6" fill="#fafafa" opacity="0.048"/><circle cx="768.0" cy="715.5" r="0.6" fill="#fafafa" opacity="0.018"/><circle cx="792.2" cy="520.1" r="0.6" fill="#fafafa" opacity="0.048"/><circle cx="812.8" cy="747.6" r="0.6" fill="#fafafa" opacity="0.008"/><circle cx="1496.2" cy="873.0" r="0.6" fill="#fafafa" opacity="0.020"/><circle cx="309.3" cy="371.4" r="0.6" fill="#fafafa" opacity="0.003"/><circle cx="1118.7" cy="517.6" r="0.6" fill="#fafafa" opacity="0.030"/><circle cx="1391.1" cy="786.8" r="0.6" fill="#fafafa" opacity="0.020"/><circle cx="193.1" cy="653.9" r="0.6" fill="#fafafa" opacity="0.045"/><circle cx="1391.4" cy="493.9" r="0.6" fill="#fafafa" opacity="0.026"/><circle cx="852.6" cy="681.8" r="0.6" fill="#fafafa" opacity="0.033"/><circle cx="843.5" cy="692.7" r="0.6" fill="#fafafa" opacity="0.036"/><circle cx="430.7" cy="1.4" r="0.6" fill="#fafafa" opacity="0.008"/><circle cx="280.9" cy="783.1" r="0.6" fill="#fafafa" opacity="0.019"/><circle cx="1060.6" cy="712.7" r="0.6" fill="#fafafa" opacity="0.039"/><circle cx="236.7" cy="165.2" r="0.6" fill="#fafafa" opacity="0.039"/><circle cx="75.7" cy="415.7" r="0.6" fill="#fafafa" opacity="0.041"/><circle cx="1244.4" cy="39.0" r="0.6" fill="#fafafa" opacity="0.015"/><circle cx="1209.4" cy="310.3" r="0.6" fill="#fafafa" opacity="0.032"/><circle cx="637.3" cy="704.4" r="0.6" fill="#fafafa" opacity="0.013"/><circle cx="194.8" cy="696.5" r="0.6" fill="#fafafa" opacity="0.028"/><circle cx="548.7" cy="661.6" r="0.6" fill="#fafafa" opacity="0.049"/><circle cx="765.5" cy="74.5" r="0.6" fill="#fafafa" opacity="0.046"/><circle cx="1511.9" cy="210.3" r="0.6" fill="#fafafa" opacity="0.040"/><circle cx="254.7" cy="544.1" r="0.6" fill="#fafafa" opacity="0.002"/><circle cx="860.4" cy="550.8" r="0.6" fill="#fafafa" opacity="0.003"/><circle cx="795.7" cy="605.4" r="0.6" fill="#fafafa" opacity="0.013"/><circle cx="727.3" cy="182.9" r="0.6" fill="#fafafa" opacity="0.004"/><circle cx="1321.9" cy="558.3" r="0.6" fill="#fafafa" opacity="0.046"/><circle cx="46.1" cy="306.6" r="0.6" fill="#fafafa" opacity="0.010"/><circle cx="766.6" cy="702.9" r="0.6" fill="#fafafa" opacity="0.017"/><circle cx="950.1" cy="322.1" r="0.6" fill="#fafafa" opacity="0.038"/><circle cx="1263.2" cy="439.2" r="0.6" fill="#fafafa" opacity="0.044"/><circle cx="772.6" cy="529.2" r="0.6" fill="#fafafa" opacity="0.005"/><circle cx="145.0" cy="67.1" r="0.6" fill="#fafafa" opacity="0.042"/><circle cx="47.0" cy="328.0" r="0.6" fill="#fafafa" opacity="0.026"/><circle cx="1145.3" cy="786.7" r="0.6" fill="#fafafa" opacity="0.029"/><circle cx="906.5" cy="18.4" r="0.6" fill="#fafafa" opacity="0.020"/>
  <rect width="1600" height="900" fill="url(#vign)" opacity="0.22"/>
</svg>